<svg width="77" height="60" xmlns="http://www.w3.org/2000/svg" fill="none">

 <g>
  <title>Layer 1</title>
  <path id="svg_1" fill="#1F1F21" d="m12.09722,38.23841l1.3986,-1.7102c0,0 -0.1145,-3.1171 1.8062,-4.2051c1.5428,-0.8733 2.7344,0.1058 3.5199,-0.1579c0.7855,-0.2637 0.8875,-1.197 0.8341,-2.2644c-0.0533,-1.0675 -1.052,-5.3184 4.514,-10.422c3.6752,-3.3698 11.5727,-6.6322 17.6326,-9.2488c4.4215,-1.9043 7.9791,-3.5797 7.9791,-3.5797c0,0 -17.9995,11.5636 -18.1469,17.8989c-0.0862,3.4488 4.1424,6.1869 13.4322,1.1228c11.7357,-6.4048 27.49,-25.5308 27.49,-25.5308c0,0 -12.4962,17.6527 -23.6283,28.9542c0,0 8.7129,-0.4216 22.1984,-14.4771c0,0 -11.5366,18.4959 -31.1181,24.5296c-11.1462,3.4361 -19.4843,3.763 -24.6161,-0.3079c-0.5362,-0.4232 -0.9,-0.8859 -1.3593,-0.9285c-0.4594,-0.0427 -1.9286,0.3269 -1.9286,0.3269" clip-rule="evenodd" fill-rule="evenodd"/>
  <path id="svg_2" fill="white" d="m35.53262,34.90321c2.1481,-0.5653 3.0919,-1.1401 3.5466,-1.3296c0.4547,-0.1895 0.6444,1.0043 -3.3584,4.2556c-4.1487,3.3682 -11.1321,3.1582 -12.9023,2.6213c-1.7701,-0.5369 -3.6234,-1.557 -3.2455,-3.0397c0.3778,-1.4828 4.8605,-1.2917 5.5848,-1.3296c1.9709,-0.1042 8.0418,-0.5637 10.3748,-1.178z" clip-rule="evenodd" fill-rule="evenodd"/>
  <path id="svg_3" fill="white" d="m14.68412,34.63811c0,-0.1249 0.0368,-0.247 0.1057,-0.3509c0.0689,-0.1039 0.1669,-0.1848 0.2815,-0.2326c0.1146,-0.0478 0.2407,-0.0603 0.3623,-0.036c0.1217,0.0244 0.2334,0.0845 0.3211,0.1729c0.0877,0.0883 0.1475,0.2009 0.1717,0.3234c0.0242,0.1225 0.0118,0.2495 -0.0357,0.3649c-0.0475,0.1155 -0.1279,0.2141 -0.231,0.2835c-0.1031,0.0694 -0.2244,0.1065 -0.3484,0.1065c-0.1664,0 -0.3259,-0.0666 -0.4435,-0.185c-0.1176,-0.1185 -0.1837,-0.2792 -0.1837,-0.4467z" clip-rule="evenodd" fill-rule="evenodd"/>
  <path id="svg_4" fill="#1F1F21" d="m21.84162,51.12691c0.0939,-0.5811 0.062,-1.1757 -0.0937,-1.7432c-0.1556,-0.5674 -0.4312,-1.0943 -0.8079,-1.5445c-0.7965,-0.9316 -1.8658,-1.4211 -3.175,-1.4432c-0.4547,-0.0095 -0.9093,-0.0111 -1.364,-0.0111c0,0 -2.0948,0.0111 -2.1873,0.0237l-0.2649,0.03l0,11.0126l2.286,0l0,-2.8219c0,0 1.0975,0 1.3295,0l0.0706,0.0395c0.2854,0.4737 1.5146,2.4887 1.5146,2.4887c0.0515,0.0975 0.1289,0.1787 0.2236,0.2345c0.0947,0.0558 0.2029,0.0839 0.3126,0.0813l2.3644,0l-2.079,-3.3967c0.5012,-0.3286 0.9272,-0.7609 1.2497,-1.2681c0.3225,-0.5072 0.5341,-1.0778 0.6208,-1.6737l0,-0.0079zm-3.9809,1.197c-0.2336,0.0157 -1.5068,0.0094 -1.615,0.0094l0,-3.6761c0,0 1.3688,0 1.662,0.0332c0.4656,0.0247 0.9037,0.2299 1.2224,0.5727c0.3187,0.3428 0.4932,0.7964 0.4872,1.266c-0.0061,0.4695 -0.1924,0.9185 -0.5199,1.2528c-0.3274,0.3342 -0.7706,0.5279 -1.2367,0.5404"/>
  <path id="svg_5" fill="#1F1F21" d="m39.23902,49.51781c-0.2431,-1.5175 -1.0317,-2.5534 -2.3519,-3.076c-0.595,-0.2253 -1.2327,-0.3127 -1.8658,-0.2559c-1.6306,0.1122 -2.9084,1.1449 -3.3349,2.6987c-0.1371,0.522 -0.2066,1.0597 -0.207,1.5996c-0.0172,1.5791 -0.0141,3.1472 -0.0125,4.7215l0,2.2423l2.3158,0l0,-2.7397l3.2455,0l0,2.7445l2.2892,0l0,-2.3687c0,-1.5338 0,-3.0666 0,-4.5983c0.0022,-0.3261 -0.0209,-0.6518 -0.069,-0.9743l-0.0094,0.0063zm-2.1951,2.8834l-3.2534,0l0.0267,-2.427c0.0037,-0.0532 0.0116,-0.106 0.0235,-0.1579c0.207,-1.0912 1.0865,-1.6123 2.137,-1.2633c0.5551,0.1863 0.8765,0.6095 0.9815,1.2933c0.0466,0.3803 0.0686,0.7632 0.0659,1.1464l0,0.2937c0.0078,0.3158 0,0.6237 0,0.9475l0.0188,0.1673z"/>
  <path id="svg_6" fill="#1F1F21" d="m47.64142,52.48021l-6.5225,-6.7332l0,11.7042l2.2766,0l0,-6.0748l6.5256,6.7238l0,-11.7011l-2.2797,0l0,6.0811z"/>
  <path id="svg_7" fill="#1F1F21" d="m5.01022,51.30061c1.0301,-1.3107 3.8085,-4.9157 3.8085,-4.9157c0,0 -2.228,0 -2.5212,0c-0.1092,-0.0027 -0.2173,0.0217 -0.3149,0.0709c-0.0976,0.0493 -0.1817,0.122 -0.2449,0.2117c-0.9156,1.1854 -1.8328,2.3702 -2.7516,3.5545l-0.4908,0.6317l0,-4.4515l-2.2609,0l0,11.0442l2.2688,0c0,0 0,-2.2108 0,-2.8992c0,-0.03 0.0042,-0.0597 0.0125,-0.0885c0.323,-0.4184 0.6522,-0.8306 0.9831,-1.2443l0.0157,-0.0174c0,0 1.7591,2.7208 2.5713,3.9699c0.0468,0.0793 0.1109,0.1469 0.1875,0.1975c0.0767,0.0507 0.1637,0.083 0.2547,0.0946c0.4107,0 2.5086,0 2.5086,0c0,0 -2.8316,-4.3535 -4.0326,-6.1584"/>
  <path id="svg_8" fill="#1F1F21" d="m25.37112,46.39591l-2.2798,0l0,11.052l7.388,0l0,-2.2818l-5.1082,0l0,-8.7702z"/>
  <path id="svg_9" fill="#1F1F21" d="m12.02362,46.39271l-2.2828,0l0,11.06l2.2828,0l0,-11.06z"/>
  <path id="svg_10" fill="#1F1F21" d="m60.99672,51.05581l-4.8605,0l0,2.2676l2.5934,0c0,0 0,1.1306 -0.0251,1.538c-0.8718,0.4749 -1.8846,0.6168 -2.852,0.3995c-0.4716,-0.1008 -0.9153,-0.3047 -1.3001,-0.5972c-0.3847,-0.2925 -0.7009,-0.6665 -0.9264,-1.0956c-0.2389,-0.451 -0.3767,-0.9493 -0.4038,-1.4597c-0.0271,-0.5105 0.0572,-1.0207 0.2471,-1.4948c0.4703,-1.1906 1.3201,-1.8949 2.529,-2.0875c1.2088,-0.1927 2.195,0.24 2.9649,1.2759c0.0311,0.0418 0.0658,0.0809 0.1035,0.1168l0.1834,0.1895l1.5679,-1.1859l0.1568,-0.1658l-0.069,-0.2052l-0.047,-0.1027c-0.0314,-0.0458 -0.0643,-0.0916 -0.1004,-0.1389c-1.4111,-1.7528 -3.244,-2.4382 -5.3983,-2.0134c-2.3346,0.4611 -4.0624,2.3686 -4.4011,4.8525c-0.1195,0.8118 -0.0631,1.6399 0.1653,2.4276c0.2284,0.7877 0.6235,1.5163 1.158,2.1356c0.5345,0.6194 1.1958,1.1148 1.9385,1.4524c0.7427,0.3375 1.5491,0.5091 2.3639,0.5029c0.4109,-0.0023 0.821,-0.0388 1.2261,-0.1089c1.0668,-0.1587 2.0651,-0.6255 2.8739,-1.3438c0.1013,-0.087 0.182,-0.1956 0.2363,-0.318c0.0542,-0.1224 0.0806,-0.2555 0.0773,-0.3895c0,-1.0527 0,-2.1023 0,-3.1487l-0.0016,-1.3027z"/>
  <path id="svg_11" fill="#1F1F21" d="m74.60942,53.49861l-0.4391,0.5637c-0.8325,1.0217 -1.7936,1.4038 -2.957,1.1686c-1.3813,-0.2827 -2.2515,-1.1149 -2.5917,-2.4745c-0.3403,-1.3596 0.0329,-2.5265 1.1085,-3.474c0.5621,-0.4938 1.2814,-0.7683 2.0273,-0.7737c0.6114,0 1.5051,0.1974 2.2781,1.1369l0.3904,0.4738l1.6021,-1.1922l0.201,-0.1943l-0.187,-0.3063c-0.602,-0.8519 -1.4392,-1.5066 -2.4081,-1.8823c-0.9689,-0.3757 -2.0261,-0.4559 -3.0399,-0.2305c-2.5432,0.5826 -4.3086,2.7665 -4.3902,5.4336c-0.0831,2.6308 1.4927,4.8952 3.9308,5.6689c-0.058,0.1863 -0.4594,1.5144 -0.4594,1.5144c0,0 1.5679,0 1.7764,0l0.0079,0c0.1118,0.0057 0.2225,-0.0254 0.3153,-0.0886c0.0928,-0.0633 0.1626,-0.1552 0.1989,-0.262l0.381,-0.9253c0.0422,-0.0137 0.0859,-0.0222 0.1302,-0.0253c1.5679,-0.2116 2.7971,-1.0169 3.7631,-2.4634l0.157,-0.2321l-1.7956,-1.4354z"/>
  <path id="svg_12" fill="#1F1F21" d="m64.90402,46.40691l-2.2797,0l0,11.0567l2.2797,0l0,-11.0567z"/>
 </g>
</svg>